<svg width="80" height="70" viewBox="0 0 80 70" fill="none" xmlns="http://www.w3.org/2000/svg">
<path d="M31.0605 61.0492V46.3139C31.0605 46.0408 31.1723 45.7795 31.3698 45.5908L57.9732 20.1786C58.8373 19.3532 57.7876 17.9815 56.765 18.5998L21.9493 39.6512C21.7023 39.8005 21.4028 39.8359 21.1278 39.7481L0.696274 33.2274C-0.195256 32.9429 -0.242416 31.6991 0.625007 31.3479L77.8602 0.0747271C78.594 -0.222423 79.3658 0.410611 79.2179 1.18842L66.3556 68.8343C66.2185 69.5553 65.3772 69.8879 64.7841 69.4555L42.7357 53.3786C42.3449 53.0935 41.806 53.1292 41.4561 53.4632L32.751 61.7726C32.1147 62.38 31.0605 61.929 31.0605 61.0492Z" fill="#D9D9D9"/>
</svg>
